<svg xmlns="http://www.w3.org/2000/svg" xmlns:xlink="http://www.w3.org/1999/xlink" width="840" height="581.04"><rect width="840" height="581.04" rx="5" ry="5" class="a"/><svg y="0%" x="0%"><circle cx="20" cy="20" r="6" fill="#ff5f58"/><circle cx="40" cy="20" r="6" fill="#ffbd2e"/><circle cx="60" cy="20" r="6" fill="#18c132"/></svg><svg height="521.04" viewBox="0 0 80 52.104" width="800" x="15" xmlns="http://www.w3.org/2000/svg" xmlns:xlink="http://www.w3.org/1999/xlink" y="50"><style>@keyframes m{0%{transform:translateX(0)}5.2%{transform:translateX(-80px)}5.21%{transform:translateX(-160px)}7.56%{transform:translateX(-240px)}9.03%{transform:translateX(-320px)}9.9%{transform:translateX(-400px)}10.97%{transform:translateX(-480px)}12.51%{transform:translateX(-560px)}13.4%{transform:translateX(-640px)}14.24%{transform:translateX(-720px)}15.22%{transform:translateX(-800px)}16.3%{transform:translateX(-880px)}17%{transform:translateX(-960px)}17.97%{transform:translateX(-1040px)}18.95%{transform:translateX(-1120px)}19.77%{transform:translateX(-1200px)}20.88%{transform:translateX(-1280px)}21.88%{transform:translateX(-1360px)}23.32%{transform:translateX(-1440px)}24.54%{transform:translateX(-1520px)}25.08%{transform:translateX(-1600px)}26.02%{transform:translateX(-1680px)}27.02%{transform:translateX(-1760px)}27.95%{transform:translateX(-1840px)}28.66%{transform:translateX(-1920px)}29.37%{transform:translateX(-2000px)}30.12%{transform:translateX(-2080px)}31.51%{transform:translateX(-2160px)}32.74%{transform:translateX(-2240px)}33.96%{transform:translateX(-2320px)}35.02%{transform:translateX(-2400px)}35.92%{transform:translateX(-2480px)}36.6%{transform:translateX(-2560px)}37.66%{transform:translateX(-2640px)}38.69%{transform:translateX(-2720px)}39.31%{transform:translateX(-2800px)}40.22%{transform:translateX(-2880px)}41.19%{transform:translateX(-2960px)}41.94%{transform:translateX(-3040px)}43.01%{transform:translateX(-3120px)}45.06%{transform:translateX(-3200px)}45.67%{transform:translateX(-3280px)}46.66%{transform:translateX(-3360px)}47.25%{transform:translateX(-3440px)}48.33%{transform:translateX(-3520px)}48.98%{transform:translateX(-3600px)}49.49%{transform:translateX(-3680px)}50.32%{transform:translateX(-3760px)}50.35%{transform:translateX(-3840px)}59.75%{transform:translateX(-3920px)}61.87%{transform:translateX(-4000px)}61.88%{transform:translateX(-4640px)}61.89%{transform:translateX(-4720px)}61.93%{transform:translateX(-4880px)}61.95%{transform:translateX(-4960px)}71.35%{transform:translateX(-5120px)}72.52%{transform:translateX(-5200px)}81.92%{transform:translateX(-5360px)}91.32%{transform:translateX(-6320px)}91.48%{transform:translateX(-6560px)}91.49%{transform:translateX(-6640px)}to{transform:translateX(-6720px)}}.a{fill:#282d35}.f,.g,.h,.i,.j,.o{fill:#66c2cd;white-space:pre}.g,.h,.i,.j,.o{fill:#a8cc8c}.h,.i,.j,.o{fill:#b9c0cb}.i,.j,.o{fill:#b9bfca}.j,.o{fill:#dbab79}.o{fill:#e88388;font-weight:700}</style><g font-family="Monaco,Consolas,Menlo,'Bitstream Vera Sans Mono','Powerline Symbols',monospace" font-size="1.67"><defs><symbol id="1"><text y="1.67" class="f">λ</text></symbol><symbol id="2"><text y="1.67" class="f">λ</text><text x="2.004" y="1.67" class="g">npx</text></symbol><symbol id="3"><text y="1.67" class="f">λ</text><text x="2.004" y="1.67" class="g">npx</text><text x="6.012" y="1.67" class="h">portfolio-generator</text></symbol><symbol id="4"><text y="1.67" class="f">λ</text><text x="2.004" y="1.67" class="g">npx</text><text x="6.012" y="1.67" class="h">portfolio-generator</text><text x="26.052" y="1.67" class="h">my-portfolio</text></symbol><symbol id="5"><text y="1.67" class="f">λ</text><text x="2.004" y="1.67" class="g">npx</text><text x="6.012" y="1.67" class="h">portfolio-generator</text><text x="26.052" y="1.67" class="h">my-portfolio</text><text x="39.078" y="1.67" class="h">--dummy</text></symbol><symbol id="6"><text y="1.67" class="f">[INFO]</text><text x="7.014" y="1.67" class="h">Checking</text><text x="16.032" y="1.67" class="h">version</text><text x="24.048" y="1.67" class="h">of</text><text x="27.054" y="1.67" class="g">portfolio-generator</text></symbol><symbol id="7">0<text y="1.67" class="i">npm</text>0<text x="4.008" y="1.67" class="j">WARN!</text><text x="10.02" y="1.67" class="j">You</text><text x="14.028" y="1.67" class="j">are</text><text x="18.036" y="1.67" class="j">building</text><text x="27.054" y="1.67" class="j">with</text><text x="32.064" y="1.67" class="g">--dummy</text><text x="40.08" y="1.67" class="j">option.</text></symbol><symbol id="8">0<text y="1.67" class="i">npm</text>0<text x="4.008" y="1.67" class="j">WARN!</text><text x="12.024" y="1.67" class="j">-</text><text x="14.028" y="1.67" class="j">The</text><text x="18.036" y="1.67" class="j">website</text><text x="26.052" y="1.67" class="j">will</text><text x="31.062" y="1.67" class="j">look</text><text x="36.072" y="1.67" class="j">like</text><text x="41.082" y="1.67" class="f">https://www.cybersaksham.co.in/</text></symbol><symbol id="9">0<text y="1.67" class="i">npm</text>0<text x="4.008" y="1.67" class="j">WARN!</text><text x="12.024" y="1.67" class="j">-</text><text x="14.028" y="1.67" class="j">The</text><text x="18.036" y="1.67" class="j">generated</text><text x="28.056" y="1.67" class="j">data</text><text x="33.066" y="1.67" class="j">will</text><text x="38.076" y="1.67" class="j">be</text><text x="41.082" y="1.67" class="j">personal</text><text x="50.1" y="1.67" class="j">data</text><text x="55.11" y="1.67" class="j">of</text><text x="58.116" y="1.67" class="g">Saksham</text><text x="66.132" y="1.67" class="g">Bindal</text><text x="73.146" y="1.67" class="g">(cybers</text></symbol><symbol id="10"><text y="1.67" class="g">aksham)</text></symbol><symbol id="11">0<text y="1.67" class="i">npm</text>0<text x="4.008" y="1.67" class="j">WARN!</text></symbol><symbol id="12">0<text y="1.67" class="i">npm</text>0<text x="4.008" y="1.67" class="j">WARN!</text><text x="12.024" y="1.67" class="j">-</text><text x="14.028" y="1.67" class="j">This</text><text x="19.038" y="1.67" class="j">data</text><text x="24.048" y="1.67" class="j">is</text><text x="27.054" y="1.67" class="j">only</text><text x="32.064" y="1.67" class="j">for</text><text x="36.072" y="1.67" class="j">testing</text><text x="44.088" y="1.67" class="j">purpose.</text><text x="53.106" y="1.67" class="j">You</text><text x="57.114" y="1.67" class="j">are</text><text x="61.122" y="1.67" class="j">not</text><text x="65.13" y="1.67" class="j">allowed</text><text x="73.146" y="1.67" class="j">to</text><text x="76.152" y="1.67" class="j">misu</text></symbol><symbol id="13"><text y="1.67" class="j">se</text><text x="3.006" y="1.67" class="j">downloaded</text><text x="14.028" y="1.67" class="j">data.</text></symbol><symbol id="14">0<text y="1.67" class="i">npm</text>0<text x="4.008" y="1.67" class="j">WARN!</text><text x="12.024" y="1.67" class="j">-</text><text x="14.028" y="1.67" class="j">You</text><text x="18.036" y="1.67" class="j">are</text><text x="22.044" y="1.67" class="j">not</text><text x="26.052" y="1.67" class="j">allowed</text><text x="34.068" y="1.67" class="j">to</text><text x="37.074" y="1.67" class="j">distribute</text><text x="48.096" y="1.67" class="j">or</text><text x="51.102" y="1.67" class="j">publish</text><text x="59.118" y="1.67" class="j">this</text><text x="64.128" y="1.67" class="j">data.</text></symbol><symbol id="15">0<text y="1.67" class="i">npm</text>0<text x="4.008" y="1.67" class="j">WARN!</text><text x="12.024" y="1.67" class="j">-</text><text x="14.028" y="1.67" class="j">You</text><text x="18.036" y="1.67" class="j">can</text><text x="22.044" y="1.67" class="j">also</text><text x="27.054" y="1.67" class="j">watch</text><text x="33.066" y="1.67" class="j">dummy</text><text x="39.078" y="1.67" class="j">website</text><text x="47.094" y="1.67" class="j">on:</text></symbol><symbol id="16">0<text y="1.67" class="i">npm</text>0<text x="4.008" y="1.67" class="j">WARN!</text><text x="16.032" y="1.67" class="f">https://github.com/cybersaksham/Portfolio-Website-NextJS</text></symbol><symbol id="17">0<text y="1.67" class="i">npm</text>0<text x="4.008" y="1.67" class="j">WARN!</text><text x="16.032" y="1.67" class="f">https://www.cybersaksham.co.in/</text></symbol><symbol id="18"><text y="1.67" class="f">[INFO]</text><text x="7.014" y="1.67" class="h">Creating</text><text x="16.032" y="1.67" class="h">a</text><text x="18.036" y="1.67" class="h">new</text><text x="22.044" y="1.67" class="h">Portfolio</text><text x="32.064" y="1.67" class="h">project</text><text x="40.08" y="1.67" class="h">in</text><text x="43.086" y="1.67" class="g">/home/cybersaksham/my-portfolio</text><text x="74.148" y="1.67" class="h">.</text></symbol><symbol id="19"><text y="1.67" class="f">[INFO]</text><text x="7.014" y="1.67" class="h">Downloading</text><text x="19.038" y="1.67" class="h">108</text><text x="23.046" y="1.67" class="h">files:</text></symbol><symbol id="20"><text y="1.67" class="f">[INFO]</text><text x="7.014" y="1.67" class="h">Downloaded</text><text x="18.036" y="1.67" class="h">108/108</text><text x="26.052" y="1.67" class="h">files</text><text x="32.064" y="1.67" class="h">successfully.</text></symbol><symbol id="21"><text y="1.67" class="f">[INFO]</text><text x="7.014" y="1.67" class="h">Installing</text><text x="18.036" y="1.67" class="h">packages.</text><text x="28.056" y="1.67" class="h">This</text><text x="33.066" y="1.67" class="h">might</text><text x="39.078" y="1.67" class="h">take</text><text x="44.088" y="1.67" class="h">a</text><text x="46.092" y="1.67" class="h">couple</text><text x="53.106" y="1.67" class="h">of</text><text x="56.112" y="1.67" class="h">minutes.</text></symbol><symbol id="22"><text y="1.67" class="f">[INFO]</text><text x="7.014" y="1.67" class="h">Installed</text><text x="17.034" y="1.67" class="h">dependencies</text><text x="30.06" y="1.67" class="g">cors</text><text x="34.068" y="1.67" class="h">,</text><text x="36.072" y="1.67" class="g">next</text><text x="40.08" y="1.67" class="h">,</text><text x="42.084" y="1.67" class="g">nodemailer</text><text x="52.104" y="1.67" class="h">,</text><text x="54.108" y="1.67" class="g">react</text><text x="59.118" y="1.67" class="h">,</text><text x="61.122" y="1.67" class="g">react-dom</text></symbol><symbol id="23"><text y="1.67" class="f">[INFO]</text><text x="7.014" y="1.67" class="h">Finalizing</text><text x="18.036" y="1.67" class="h">the</text><text x="22.044" y="1.67" class="h">portfolio...</text></symbol><symbol id="24"><text y="1.67" class="h">Success!</text><text x="9.018" y="1.67" class="h">Created</text><text x="17.034" y="1.67" class="g">my-portfolio</text><text x="30.06" y="1.67" class="h">at</text><text x="33.066" y="1.67" class="f">/home/cybersaksham/my-portfolio</text></symbol><symbol id="25"><text y="1.67" class="h">Inside</text><text x="7.014" y="1.67" class="h">that</text><text x="12.024" y="1.67" class="h">directory,</text><text x="23.046" y="1.67" class="h">you</text><text x="27.054" y="1.67" class="h">can</text><text x="31.062" y="1.67" class="h">run</text><text x="35.07" y="1.67" class="h">several</text><text x="43.086" y="1.67" class="h">commands:</text></symbol><symbol id="26"><text x="2.004" y="1.67" class="f">npm</text><text x="6.012" y="1.67" class="f">run</text><text x="10.02" y="1.67" class="f">dev</text></symbol><symbol id="27"><text x="4.008" y="1.67" class="h">Starts</text><text x="11.022" y="1.67" class="h">the</text><text x="15.03" y="1.67" class="h">development</text><text x="27.054" y="1.67" class="h">server.</text></symbol><symbol id="28"><text x="4.008" y="1.67" class="h">By</text><text x="7.014" y="1.67" class="h">defualt</text><text x="15.03" y="1.67" class="h">server</text><text x="22.044" y="1.67" class="h">is</text><text x="25.05" y="1.67" class="h">started</text><text x="33.066" y="1.67" class="h">at</text><text x="36.072" y="1.67" class="f">http://localhost:3000</text></symbol><symbol id="29"><text x="2.004" y="1.67" class="f">npm</text><text x="6.012" y="1.67" class="f">run</text><text x="10.02" y="1.67" class="f">build</text></symbol><symbol id="30"><text x="4.008" y="1.67" class="h">Bundles</text><text x="12.024" y="1.67" class="h">the</text><text x="16.032" y="1.67" class="h">app</text><text x="20.04" y="1.67" class="h">into</text><text x="25.05" y="1.67" class="h">static</text><text x="32.064" y="1.67" class="h">files</text><text x="38.076" y="1.67" class="h">for</text><text x="42.084" y="1.67" class="h">production.</text></symbol><symbol id="31"><text x="2.004" y="1.67" class="f">npm</text><text x="6.012" y="1.67" class="f">run</text><text x="10.02" y="1.67" class="f">start</text></symbol><symbol id="32"><text x="4.008" y="1.67" class="h">Starts</text><text x="11.022" y="1.67" class="h">the</text><text x="15.03" y="1.67" class="h">production</text><text x="26.052" y="1.67" class="h">build</text><text x="32.064" y="1.67" class="h">made</text><text x="37.074" y="1.67" class="h">by</text><text x="40.08" y="1.67" class="g">npm</text><text x="44.088" y="1.67" class="g">run</text><text x="48.096" y="1.67" class="g">build</text><text x="53.106" y="1.67" class="h">.</text></symbol><symbol id="33"><text y="1.67" class="h">We</text><text x="3.006" y="1.67" class="h">suggest</text><text x="11.022" y="1.67" class="h">that</text><text x="16.032" y="1.67" class="h">you</text><text x="20.04" y="1.67" class="h">begin</text><text x="26.052" y="1.67" class="h">by</text><text x="29.058" y="1.67" class="h">typing:</text></symbol><symbol id="34"><text x="2.004" y="1.67" class="f">cd</text><text x="5.01" y="1.67" class="h">my-portfolio</text></symbol><symbol id="35"><text y="1.67" class="h">Happy</text><text x="6.012" y="1.67" class="h">hacking!</text></symbol><symbol id="a"><path fill="transparent" d="M0 0h80v24H0z"/></symbol><symbol id="b"><path fill="#6f7683" d="M0 0h1.102v2.171H0z"/></symbol></defs><path class="a" d="M0 0h80v52.104H0z"/><g style="animation-duration:21.276462000000006s;animation-iteration-count:infinite;animation-name:m;animation-timing-function:steps(1,end)"><svg width="6800"><svg><use xlink:href="#a"/><use xlink:href="#b" x="-.004"/></svg><svg x="80"><use xlink:href="#a"/><use xlink:href="#b" x="-.004"/></svg><svg x="160"><use xlink:href="#a"/><use xlink:href="#b" x="1.996"/><use xlink:href="#1"/></svg><svg x="240"><use xlink:href="#a"/><use xlink:href="#b" x="2.996"/><text y="1.67" class="f">λ</text><text x="2.004" y="1.67" class="o">n</text></svg><svg x="320"><use xlink:href="#a"/><use xlink:href="#b" x="3.996"/><text y="1.67" class="f">λ</text><text x="2.004" y="1.67" class="o">np</text></svg><svg x="400"><use xlink:href="#a"/><use xlink:href="#b" x="4.996"/><use xlink:href="#2"/></svg><svg x="480"><use xlink:href="#a"/><use xlink:href="#b" x="5.996"/><use xlink:href="#2"/></svg><svg x="560"><use xlink:href="#a"/><use xlink:href="#b" x="6.996"/><text y="1.67" class="f">λ</text><text x="2.004" y="1.67" class="g">npx</text><text x="6.012" y="1.67" style="white-space:pre" fill="#b9c0cb" text-decoration="underline">p</text></svg><svg x="640"><use xlink:href="#a"/><use xlink:href="#b" x="7.996"/><text y="1.67" class="f">λ</text><text x="2.004" y="1.67" class="g">npx</text><text x="6.012" y="1.67" class="h">po</text></svg><svg x="720"><use xlink:href="#a"/><use xlink:href="#b" x="8.996"/><text y="1.67" class="f">λ</text><text x="2.004" y="1.67" class="g">npx</text><text x="6.012" y="1.67" class="h">por</text></svg><svg x="800"><use xlink:href="#a"/><use xlink:href="#b" x="9.996"/><text y="1.67" class="f">λ</text><text x="2.004" y="1.67" class="g">npx</text><text x="6.012" y="1.67" class="h">port</text></svg><svg x="880"><use xlink:href="#a"/><use xlink:href="#b" x="10.996"/><text y="1.67" class="f">λ</text><text x="2.004" y="1.67" class="g">npx</text><text x="6.012" y="1.67" class="h">portf</text></svg><svg x="960"><use xlink:href="#a"/><use xlink:href="#b" x="11.996"/><text y="1.67" class="f">λ</text><text x="2.004" y="1.67" class="g">npx</text><text x="6.012" y="1.67" class="h">portfo</text></svg><svg x="1040"><use xlink:href="#a"/><use xlink:href="#b" x="12.996"/><text y="1.67" class="f">λ</text><text x="2.004" y="1.67" class="g">npx</text><text x="6.012" y="1.67" class="h">portfol</text></svg><svg x="1120"><use xlink:href="#a"/><use xlink:href="#b" x="13.996"/><text y="1.67" class="f">λ</text><text x="2.004" y="1.67" class="g">npx</text><text x="6.012" y="1.67" class="h">portfoli</text></svg><svg x="1200"><use xlink:href="#a"/><use xlink:href="#b" x="14.996"/><text y="1.67" class="f">λ</text><text x="2.004" y="1.67" class="g">npx</text><text x="6.012" y="1.67" class="h">portfolio</text></svg><svg x="1280"><use xlink:href="#a"/><use xlink:href="#b" x="15.996"/><text y="1.67" class="f">λ</text><text x="2.004" y="1.67" class="g">npx</text><text x="6.012" y="1.67" class="h">portfolio-</text></svg><svg x="1360"><use xlink:href="#a"/><use xlink:href="#b" x="16.996"/><text y="1.67" class="f">λ</text><text x="2.004" y="1.67" class="g">npx</text><text x="6.012" y="1.67" class="h">portfolio-g</text></svg><svg x="1440"><use xlink:href="#a"/><use xlink:href="#b" x="17.996"/><text y="1.67" class="f">λ</text><text x="2.004" y="1.67" class="g">npx</text><text x="6.012" y="1.67" class="h">portfolio-ge</text></svg><svg x="1520"><use xlink:href="#a"/><use xlink:href="#b" x="18.996"/><text y="1.67" class="f">λ</text><text x="2.004" y="1.67" class="g">npx</text><text x="6.012" y="1.67" class="h">portfolio-gen</text></svg><svg x="1600"><use xlink:href="#a"/><use xlink:href="#b" x="19.996"/><text y="1.67" class="f">λ</text><text x="2.004" y="1.67" class="g">npx</text><text x="6.012" y="1.67" class="h">portfolio-gene</text></svg><svg x="1680"><use xlink:href="#a"/><use xlink:href="#b" x="20.996"/><text y="1.67" class="f">λ</text><text x="2.004" y="1.67" class="g">npx</text><text x="6.012" y="1.67" class="h">portfolio-gener</text></svg><svg x="1760"><use xlink:href="#a"/><use xlink:href="#b" x="21.996"/><text y="1.67" class="f">λ</text><text x="2.004" y="1.67" class="g">npx</text><text x="6.012" y="1.67" class="h">portfolio-genera</text></svg><svg x="1840"><use xlink:href="#a"/><use xlink:href="#b" x="22.996"/><text y="1.67" class="f">λ</text><text x="2.004" y="1.67" class="g">npx</text><text x="6.012" y="1.67" class="h">portfolio-generat</text></svg><svg x="1920"><use xlink:href="#a"/><use xlink:href="#b" x="23.996"/><text y="1.67" class="f">λ</text><text x="2.004" y="1.67" class="g">npx</text><text x="6.012" y="1.67" class="h">portfolio-generato</text></svg><svg x="2000"><use xlink:href="#a"/><use xlink:href="#b" x="24.996"/><use xlink:href="#3"/></svg><svg x="2080"><use xlink:href="#a"/><use xlink:href="#b" x="25.996"/><use xlink:href="#3"/></svg><svg x="2160"><use xlink:href="#a"/><use xlink:href="#b" x="26.996"/><text y="1.67" class="f">λ</text><text x="2.004" y="1.67" class="g">npx</text><text x="6.012" y="1.67" class="h">portfolio-generator</text><text x="26.052" y="1.67" class="h">m</text></svg><svg x="2240"><use xlink:href="#a"/><use xlink:href="#b" x="27.996"/><text y="1.67" class="f">λ</text><text x="2.004" y="1.67" class="g">npx</text><text x="6.012" y="1.67" class="h">portfolio-generator</text><text x="26.052" y="1.67" class="h">my</text></svg><svg x="2320"><use xlink:href="#a"/><use xlink:href="#b" x="28.996"/><text y="1.67" class="f">λ</text><text x="2.004" y="1.67" class="g">npx</text><text x="6.012" y="1.67" class="h">portfolio-generator</text><text x="26.052" y="1.67" class="h">my-</text></svg><svg x="2400"><use xlink:href="#a"/><use xlink:href="#b" x="29.996"/><text y="1.67" class="f">λ</text><text x="2.004" y="1.67" class="g">npx</text><text x="6.012" y="1.67" class="h">portfolio-generator</text><text x="26.052" y="1.67" class="h">my-p</text></svg><svg x="2480"><use xlink:href="#a"/><use xlink:href="#b" x="30.996"/><text y="1.67" class="f">λ</text><text x="2.004" y="1.67" class="g">npx</text><text x="6.012" y="1.67" class="h">portfolio-generator</text><text x="26.052" y="1.67" class="h">my-po</text></svg><svg x="2560"><use xlink:href="#a"/><use xlink:href="#b" x="31.996"/><text y="1.67" class="f">λ</text><text x="2.004" y="1.67" class="g">npx</text><text x="6.012" y="1.67" class="h">portfolio-generator</text><text x="26.052" y="1.67" class="h">my-por</text></svg><svg x="2640"><use xlink:href="#a"/><use xlink:href="#b" x="32.996"/><text y="1.67" class="f">λ</text><text x="2.004" y="1.67" class="g">npx</text><text x="6.012" y="1.67" class="h">portfolio-generator</text><text x="26.052" y="1.67" class="h">my-port</text></svg><svg x="2720"><use xlink:href="#a"/><use xlink:href="#b" x="33.996"/><text y="1.67" class="f">λ</text><text x="2.004" y="1.67" class="g">npx</text><text x="6.012" y="1.67" class="h">portfolio-generator</text><text x="26.052" y="1.67" class="h">my-portf</text></svg><svg x="2800"><use xlink:href="#a"/><use xlink:href="#b" x="34.996"/><text y="1.67" class="f">λ</text><text x="2.004" y="1.67" class="g">npx</text><text x="6.012" y="1.67" class="h">portfolio-generator</text><text x="26.052" y="1.67" class="h">my-portfo</text></svg><svg x="2880"><use xlink:href="#a"/><use xlink:href="#b" x="35.996"/><text y="1.67" class="f">λ</text><text x="2.004" y="1.67" class="g">npx</text><text x="6.012" y="1.67" class="h">portfolio-generator</text><text x="26.052" y="1.67" class="h">my-portfol</text></svg><svg x="2960"><use xlink:href="#a"/><use xlink:href="#b" x="36.996"/><text y="1.67" class="f">λ</text><text x="2.004" y="1.67" class="g">npx</text><text x="6.012" y="1.67" class="h">portfolio-generator</text><text x="26.052" y="1.67" class="h">my-portfoli</text></svg><svg x="3040"><use xlink:href="#a"/><use xlink:href="#b" x="37.996"/><use xlink:href="#4"/></svg><svg x="3120"><use xlink:href="#a"/><use xlink:href="#b" x="38.996"/><use xlink:href="#4"/></svg><svg x="3200"><use xlink:href="#a"/><use xlink:href="#b" x="39.996"/><text y="1.67" class="f">λ</text><text x="2.004" y="1.67" class="g">npx</text><text x="6.012" y="1.67" class="h">portfolio-generator</text><text x="26.052" y="1.67" class="h">my-portfolio</text><text x="39.078" y="1.67" class="h">-</text></svg><svg x="3280"><use xlink:href="#a"/><use xlink:href="#b" x="40.996"/><text y="1.67" class="f">λ</text><text x="2.004" y="1.67" class="g">npx</text><text x="6.012" y="1.67" class="h">portfolio-generator</text><text x="26.052" y="1.67" class="h">my-portfolio</text><text x="39.078" y="1.67" class="h">--</text></svg><svg x="3360"><use xlink:href="#a"/><use xlink:href="#b" x="41.996"/><text y="1.67" class="f">λ</text><text x="2.004" y="1.67" class="g">npx</text><text x="6.012" y="1.67" class="h">portfolio-generator</text><text x="26.052" y="1.67" class="h">my-portfolio</text><text x="39.078" y="1.67" class="h">--d</text></svg><svg x="3440"><use xlink:href="#a"/><use xlink:href="#b" x="42.996"/><text y="1.67" class="f">λ</text><text x="2.004" y="1.67" class="g">npx</text><text x="6.012" y="1.67" class="h">portfolio-generator</text><text x="26.052" y="1.67" class="h">my-portfolio</text><text x="39.078" y="1.67" class="h">--du</text></svg><svg x="3520"><use xlink:href="#a"/><use xlink:href="#b" x="43.996"/><text y="1.67" class="f">λ</text><text x="2.004" y="1.67" class="g">npx</text><text x="6.012" y="1.67" class="h">portfolio-generator</text><text x="26.052" y="1.67" class="h">my-portfolio</text><text x="39.078" y="1.67" class="h">--dum</text></svg><svg x="3600"><use xlink:href="#a"/><use xlink:href="#b" x="44.996"/><text y="1.67" class="f">λ</text><text x="2.004" y="1.67" class="g">npx</text><text x="6.012" y="1.67" class="h">portfolio-generator</text><text x="26.052" y="1.67" class="h">my-portfolio</text><text x="39.078" y="1.67" class="h">--dumm</text></svg><svg x="3680"><use xlink:href="#a"/><use xlink:href="#b" x="45.996"/><use xlink:href="#5"/></svg><svg x="3760"><use xlink:href="#a"/><use xlink:href="#b" x="45.996"/><use xlink:href="#5"/></svg><svg x="3840"><use xlink:href="#a"/><use xlink:href="#b" x="-.004" y="2.146"/><use xlink:href="#5"/></svg><svg x="3920"><use xlink:href="#a"/><use xlink:href="#b" x="-.004" y="4.317"/><use xlink:href="#5"/><use xlink:href="#6" y="2.171"/></svg><svg x="4000"><use xlink:href="#a"/><use xlink:href="#b" x="-.004" y="6.488"/><use xlink:href="#5"/><use xlink:href="#6" y="2.171"/></svg><svg x="4080"><use xlink:href="#a"/><use xlink:href="#b" x="-.004" y="8.659"/><use xlink:href="#5"/><use xlink:href="#6" y="2.171"/><use xlink:href="#7" y="6.513"/></svg><svg x="4160"><use xlink:href="#a"/><use xlink:href="#b" x="-.004" y="10.83"/><use xlink:href="#5"/><use xlink:href="#6" y="2.171"/><use xlink:href="#7" y="6.513"/><use xlink:href="#8" y="8.684"/></svg><svg x="4240"><use xlink:href="#a"/><use xlink:href="#b" x="-.004" y="15.172"/><use xlink:href="#5"/><use xlink:href="#6" y="2.171"/><use xlink:href="#7" y="6.513"/><use xlink:href="#8" y="8.684"/><use xlink:href="#9" y="10.855"/><use xlink:href="#10" y="13.026"/></svg><svg x="4320"><use xlink:href="#a"/><use xlink:href="#b" x="-.004" y="21.685"/><use xlink:href="#5"/><use xlink:href="#6" y="2.171"/><use xlink:href="#7" y="6.513"/><use xlink:href="#8" y="8.684"/><use xlink:href="#9" y="10.855"/><use xlink:href="#10" y="13.026"/><use xlink:href="#11" y="15.197"/><use xlink:href="#12" y="17.368"/><use xlink:href="#13" y="19.539"/></svg><svg x="4400"><use xlink:href="#a"/><use xlink:href="#b" x="-.004" y="23.856"/><use xlink:href="#5"/><use xlink:href="#6" y="2.171"/><use xlink:href="#7" y="6.513"/><use xlink:href="#8" y="8.684"/><use xlink:href="#9" y="10.855"/><use xlink:href="#10" y="13.026"/><use xlink:href="#11" y="15.197"/><use xlink:href="#12" y="17.368"/><use xlink:href="#13" y="19.539"/><use xlink:href="#14" y="21.71"/></svg><svg x="4480"><use xlink:href="#a"/><use xlink:href="#b" x="-.004" y="26.027"/><use xlink:href="#5"/><use xlink:href="#6" y="2.171"/><use xlink:href="#7" y="6.513"/><use xlink:href="#8" y="8.684"/><use xlink:href="#9" y="10.855"/><use xlink:href="#10" y="13.026"/><use xlink:href="#11" y="15.197"/><use xlink:href="#12" y="17.368"/><use xlink:href="#13" y="19.539"/><use xlink:href="#14" y="21.71"/><use xlink:href="#11" y="23.881"/></svg><svg x="4560"><use xlink:href="#a"/><use xlink:href="#b" x="-.004" y="28.198"/><use xlink:href="#5"/><use xlink:href="#6" y="2.171"/><use xlink:href="#7" y="6.513"/><use xlink:href="#8" y="8.684"/><use xlink:href="#9" y="10.855"/><use xlink:href="#10" y="13.026"/><use xlink:href="#11" y="15.197"/><use xlink:href="#12" y="17.368"/><use xlink:href="#13" y="19.539"/><use xlink:href="#14" y="21.71"/><use xlink:href="#11" y="23.881"/><use xlink:href="#15" y="26.052"/></svg><svg x="4640"><use xlink:href="#a"/><use xlink:href="#b" x="-.004" y="30.369"/><use xlink:href="#5"/><use xlink:href="#6" y="2.171"/><use xlink:href="#7" y="6.513"/><use xlink:href="#8" y="8.684"/><use xlink:href="#9" y="10.855"/><use xlink:href="#10" y="13.026"/><use xlink:href="#11" y="15.197"/><use xlink:href="#12" y="17.368"/><use xlink:href="#13" y="19.539"/><use xlink:href="#14" y="21.71"/><use xlink:href="#11" y="23.881"/><use xlink:href="#15" y="26.052"/><use xlink:href="#16" y="28.223"/></svg><svg x="4720"><use xlink:href="#a"/><use xlink:href="#b" x="-.004" y="34.711"/><use xlink:href="#5"/><use xlink:href="#6" y="2.171"/><use xlink:href="#7" y="6.513"/><use xlink:href="#8" y="8.684"/><use xlink:href="#9" y="10.855"/><use xlink:href="#10" y="13.026"/><use xlink:href="#11" y="15.197"/><use xlink:href="#12" y="17.368"/><use xlink:href="#13" y="19.539"/><use xlink:href="#14" y="21.71"/><use xlink:href="#11" y="23.881"/><use xlink:href="#15" y="26.052"/><use xlink:href="#16" y="28.223"/><use xlink:href="#17" y="30.394"/></svg><svg x="4800"><use xlink:href="#a"/><use xlink:href="#b" x="-.004" y="36.882"/><use xlink:href="#5"/><use xlink:href="#6" y="2.171"/><use xlink:href="#7" y="6.513"/><use xlink:href="#8" y="8.684"/><use xlink:href="#9" y="10.855"/><use xlink:href="#10" y="13.026"/><use xlink:href="#11" y="15.197"/><use xlink:href="#12" y="17.368"/><use xlink:href="#13" y="19.539"/><use xlink:href="#14" y="21.71"/><use xlink:href="#11" y="23.881"/><use xlink:href="#15" y="26.052"/><use xlink:href="#16" y="28.223"/><use xlink:href="#17" y="30.394"/><use xlink:href="#18" y="34.736"/></svg><svg x="4880"><use xlink:href="#a"/><use xlink:href="#b" x="-.004" y="39.053"/><use xlink:href="#5"/><use xlink:href="#6" y="2.171"/><use xlink:href="#7" y="6.513"/><use xlink:href="#8" y="8.684"/><use xlink:href="#9" y="10.855"/><use xlink:href="#10" y="13.026"/><use xlink:href="#11" y="15.197"/><use xlink:href="#12" y="17.368"/><use xlink:href="#13" y="19.539"/><use xlink:href="#14" y="21.71"/><use xlink:href="#11" y="23.881"/><use xlink:href="#15" y="26.052"/><use xlink:href="#16" y="28.223"/><use xlink:href="#17" y="30.394"/><use xlink:href="#18" y="34.736"/></svg><svg x="4960"><use xlink:href="#a"/><use xlink:href="#b" x="-.004" y="41.224"/><use xlink:href="#5"/><use xlink:href="#6" y="2.171"/><use xlink:href="#7" y="6.513"/><use xlink:href="#8" y="8.684"/><use xlink:href="#9" y="10.855"/><use xlink:href="#10" y="13.026"/><use xlink:href="#11" y="15.197"/><use xlink:href="#12" y="17.368"/><use xlink:href="#13" y="19.539"/><use xlink:href="#14" y="21.71"/><use xlink:href="#11" y="23.881"/><use xlink:href="#15" y="26.052"/><use xlink:href="#16" y="28.223"/><use xlink:href="#17" y="30.394"/><use xlink:href="#18" y="34.736"/><use xlink:href="#19" y="39.078"/></svg><svg x="5040"><use xlink:href="#a"/><use xlink:href="#b" x="-.004" y="45.566"/><use xlink:href="#5"/><use xlink:href="#6" y="2.171"/><use xlink:href="#7" y="6.513"/><use xlink:href="#8" y="8.684"/><use xlink:href="#9" y="10.855"/><use xlink:href="#10" y="13.026"/><use xlink:href="#11" y="15.197"/><use xlink:href="#12" y="17.368"/><use xlink:href="#13" y="19.539"/><use xlink:href="#14" y="21.71"/><use xlink:href="#11" y="23.881"/><use xlink:href="#15" y="26.052"/><use xlink:href="#16" y="28.223"/><use xlink:href="#17" y="30.394"/><use xlink:href="#18" y="34.736"/><use xlink:href="#19" y="39.078"/><use xlink:href="#20" y="41.249"/></svg><svg x="5120"><use xlink:href="#a"/><use xlink:href="#b" x="-.004" y="47.737"/><use xlink:href="#5"/><use xlink:href="#6" y="2.171"/><use xlink:href="#7" y="6.513"/><use xlink:href="#8" y="8.684"/><use xlink:href="#9" y="10.855"/><use xlink:href="#10" y="13.026"/><use xlink:href="#11" y="15.197"/><use xlink:href="#12" y="17.368"/><use xlink:href="#13" y="19.539"/><use xlink:href="#14" y="21.71"/><use xlink:href="#11" y="23.881"/><use xlink:href="#15" y="26.052"/><use xlink:href="#16" y="28.223"/><use xlink:href="#17" y="30.394"/><use xlink:href="#18" y="34.736"/><use xlink:href="#19" y="39.078"/><use xlink:href="#20" y="41.249"/></svg><svg x="5200"><use xlink:href="#a"/><use xlink:href="#b" x="-.004" y="49.908"/><use xlink:href="#5"/><use xlink:href="#6" y="2.171"/><use xlink:href="#7" y="6.513"/><use xlink:href="#8" y="8.684"/><use xlink:href="#9" y="10.855"/><use xlink:href="#10" y="13.026"/><use xlink:href="#11" y="15.197"/><use xlink:href="#12" y="17.368"/><use xlink:href="#13" y="19.539"/><use xlink:href="#14" y="21.71"/><use xlink:href="#11" y="23.881"/><use xlink:href="#15" y="26.052"/><use xlink:href="#16" y="28.223"/><use xlink:href="#17" y="30.394"/><use xlink:href="#18" y="34.736"/><use xlink:href="#19" y="39.078"/><use xlink:href="#20" y="41.249"/><use xlink:href="#21" y="47.762"/></svg><svg x="5280"><use xlink:href="#a"/><use xlink:href="#b" x="-.004" y="49.908"/><use xlink:href="#7" y="2.171"/><use xlink:href="#8" y="4.342"/><use xlink:href="#9" y="6.513"/><use xlink:href="#10" y="8.684"/><use xlink:href="#11" y="10.855"/><use xlink:href="#12" y="13.026"/><use xlink:href="#13" y="15.197"/><use xlink:href="#14" y="17.368"/><use xlink:href="#11" y="19.539"/><use xlink:href="#15" y="21.71"/><use xlink:href="#16" y="23.881"/><use xlink:href="#17" y="26.052"/><use xlink:href="#18" y="30.394"/><use xlink:href="#19" y="34.736"/><use xlink:href="#20" y="36.907"/><use xlink:href="#21" y="43.42"/><use xlink:href="#22" y="45.591"/></svg><svg x="5360"><use xlink:href="#a"/><use xlink:href="#b" x="-.004" y="49.908"/><use xlink:href="#7"/><use xlink:href="#8" y="2.171"/><use xlink:href="#9" y="4.342"/><use xlink:href="#10" y="6.513"/><use xlink:href="#11" y="8.684"/><use xlink:href="#12" y="10.855"/><use xlink:href="#13" y="13.026"/><use xlink:href="#14" y="15.197"/><use xlink:href="#11" y="17.368"/><use xlink:href="#15" y="19.539"/><use xlink:href="#16" y="21.71"/><use xlink:href="#17" y="23.881"/><use xlink:href="#18" y="28.223"/><use xlink:href="#19" y="32.565"/><use xlink:href="#20" y="34.736"/><use xlink:href="#21" y="41.249"/><use xlink:href="#22" y="43.42"/><use xlink:href="#23" y="47.762"/></svg><svg x="5440"><use xlink:href="#a"/><use xlink:href="#b" x="-.004" y="49.908"/><use xlink:href="#11"/><use xlink:href="#12" y="2.171"/><use xlink:href="#13" y="4.342"/><use xlink:href="#14" y="6.513"/><use xlink:href="#11" y="8.684"/><use xlink:href="#15" y="10.855"/><use xlink:href="#16" y="13.026"/><use xlink:href="#17" y="15.197"/><use xlink:href="#18" y="19.539"/><use xlink:href="#19" y="23.881"/><use xlink:href="#20" y="26.052"/><use xlink:href="#21" y="32.565"/><use xlink:href="#22" y="34.736"/><use xlink:href="#23" y="39.078"/><use xlink:href="#24" y="43.42"/><use xlink:href="#25" y="45.591"/></svg><svg x="5520"><use xlink:href="#a"/><use xlink:href="#b" x="-.004" y="49.908"/><use xlink:href="#12"/><use xlink:href="#13" y="2.171"/><use xlink:href="#14" y="4.342"/><use xlink:href="#11" y="6.513"/><use xlink:href="#15" y="8.684"/><use xlink:href="#16" y="10.855"/><use xlink:href="#17" y="13.026"/><use xlink:href="#18" y="17.368"/><use xlink:href="#19" y="21.71"/><use xlink:href="#20" y="23.881"/><use xlink:href="#21" y="30.394"/><use xlink:href="#22" y="32.565"/><use xlink:href="#23" y="36.907"/><use xlink:href="#24" y="41.249"/><use xlink:href="#25" y="43.42"/><use xlink:href="#26" y="47.762"/></svg><svg x="5600"><use xlink:href="#a"/><use xlink:href="#b" x="-.004" y="49.908"/><use xlink:href="#14"/><use xlink:href="#11" y="2.171"/><use xlink:href="#15" y="4.342"/><use xlink:href="#16" y="6.513"/><use xlink:href="#17" y="8.684"/><use xlink:href="#18" y="13.026"/><use xlink:href="#19" y="17.368"/><use xlink:href="#20" y="19.539"/><use xlink:href="#21" y="26.052"/><use xlink:href="#22" y="28.223"/><use xlink:href="#23" y="32.565"/><use xlink:href="#24" y="36.907"/><use xlink:href="#25" y="39.078"/><use xlink:href="#26" y="43.42"/><use xlink:href="#27" y="45.591"/><use xlink:href="#28" y="47.762"/></svg><svg x="5680"><use xlink:href="#a"/><use xlink:href="#b" x="-.004" y="49.908"/><use xlink:href="#15"/><use xlink:href="#16" y="2.171"/><use xlink:href="#17" y="4.342"/><use xlink:href="#18" y="8.684"/><use xlink:href="#19" y="13.026"/><use xlink:href="#20" y="15.197"/><use xlink:href="#21" y="21.71"/><use xlink:href="#22" y="23.881"/><use xlink:href="#23" y="28.223"/><use xlink:href="#24" y="32.565"/><use xlink:href="#25" y="34.736"/><use xlink:href="#26" y="39.078"/><use xlink:href="#27" y="41.249"/><use xlink:href="#28" y="43.42"/><use xlink:href="#29" y="47.762"/></svg><svg x="5760"><use xlink:href="#a"/><use xlink:href="#b" x="-.004" y="49.908"/><use xlink:href="#17"/><use xlink:href="#18" y="4.342"/><use xlink:href="#19" y="8.684"/><use xlink:href="#20" y="10.855"/><use xlink:href="#21" y="17.368"/><use xlink:href="#22" y="19.539"/><use xlink:href="#23" y="23.881"/><use xlink:href="#24" y="28.223"/><use xlink:href="#25" y="30.394"/><use xlink:href="#26" y="34.736"/><use xlink:href="#27" y="36.907"/><use xlink:href="#28" y="39.078"/><use xlink:href="#29" y="43.42"/><use xlink:href="#30" y="45.591"/></svg><svg x="5840"><use xlink:href="#a"/><use xlink:href="#b" x="-.004" y="49.908"/><use xlink:href="#18"/><use xlink:href="#19" y="4.342"/><use xlink:href="#20" y="6.513"/><use xlink:href="#21" y="13.026"/><use xlink:href="#22" y="15.197"/><use xlink:href="#23" y="19.539"/><use xlink:href="#24" y="23.881"/><use xlink:href="#25" y="26.052"/><use xlink:href="#26" y="30.394"/><use xlink:href="#27" y="32.565"/><use xlink:href="#28" y="34.736"/><use xlink:href="#29" y="39.078"/><use xlink:href="#30" y="41.249"/><use xlink:href="#31" y="45.591"/><use xlink:href="#32" y="47.762"/></svg><svg x="5920"><use xlink:href="#a"/><use xlink:href="#b" x="-.004" y="49.908"/><use xlink:href="#19" y="2.171"/><use xlink:href="#20" y="4.342"/><use xlink:href="#21" y="10.855"/><use xlink:href="#22" y="13.026"/><use xlink:href="#23" y="17.368"/><use xlink:href="#24" y="21.71"/><use xlink:href="#25" y="23.881"/><use xlink:href="#26" y="28.223"/><use xlink:href="#27" y="30.394"/><use xlink:href="#28" y="32.565"/><use xlink:href="#29" y="36.907"/><use xlink:href="#30" y="39.078"/><use xlink:href="#31" y="43.42"/><use xlink:href="#32" y="45.591"/><use xlink:href="#28" y="47.762"/></svg><svg x="6000"><use xlink:href="#a"/><use xlink:href="#b" x="-.004" y="49.908"/><use xlink:href="#19"/><use xlink:href="#20" y="2.171"/><use xlink:href="#21" y="8.684"/><use xlink:href="#22" y="10.855"/><use xlink:href="#23" y="15.197"/><use xlink:href="#24" y="19.539"/><use xlink:href="#25" y="21.71"/><use xlink:href="#26" y="26.052"/><use xlink:href="#27" y="28.223"/><use xlink:href="#28" y="30.394"/><use xlink:href="#29" y="34.736"/><use xlink:href="#30" y="36.907"/><use xlink:href="#31" y="41.249"/><use xlink:href="#32" y="43.42"/><use xlink:href="#28" y="45.591"/></svg><svg x="6080"><use xlink:href="#a"/><use xlink:href="#b" x="-.004" y="49.908"/><use xlink:href="#21" y="4.342"/><use xlink:href="#22" y="6.513"/><use xlink:href="#23" y="10.855"/><use xlink:href="#24" y="15.197"/><use xlink:href="#25" y="17.368"/><use xlink:href="#26" y="21.71"/><use xlink:href="#27" y="23.881"/><use xlink:href="#28" y="26.052"/><use xlink:href="#29" y="30.394"/><use xlink:href="#30" y="32.565"/><use xlink:href="#31" y="36.907"/><use xlink:href="#32" y="39.078"/><use xlink:href="#28" y="41.249"/><use xlink:href="#33" y="45.591"/></svg><svg x="6160"><use xlink:href="#a"/><use xlink:href="#b" x="-.004" y="49.908"/><use xlink:href="#21" y="2.171"/><use xlink:href="#22" y="4.342"/><use xlink:href="#23" y="8.684"/><use xlink:href="#24" y="13.026"/><use xlink:href="#25" y="15.197"/><use xlink:href="#26" y="19.539"/><use xlink:href="#27" y="21.71"/><use xlink:href="#28" y="23.881"/><use xlink:href="#29" y="28.223"/><use xlink:href="#30" y="30.394"/><use xlink:href="#31" y="34.736"/><use xlink:href="#32" y="36.907"/><use xlink:href="#28" y="39.078"/><use xlink:href="#33" y="43.42"/><use xlink:href="#34" y="47.762"/></svg><svg x="6240"><use xlink:href="#a"/><use xlink:href="#b" x="-.004" y="49.908"/><use xlink:href="#21"/><use xlink:href="#22" y="2.171"/><use xlink:href="#23" y="6.513"/><use xlink:href="#24" y="10.855"/><use xlink:href="#25" y="13.026"/><use xlink:href="#26" y="17.368"/><use xlink:href="#27" y="19.539"/><use xlink:href="#28" y="21.71"/><use xlink:href="#29" y="26.052"/><use xlink:href="#30" y="28.223"/><use xlink:href="#31" y="32.565"/><use xlink:href="#32" y="34.736"/><use xlink:href="#28" y="36.907"/><use xlink:href="#33" y="41.249"/><use xlink:href="#34" y="45.591"/><use xlink:href="#26" y="47.762"/></svg><svg x="6320"><use xlink:href="#a"/><use xlink:href="#b" x="-.004" y="49.908"/><use xlink:href="#23"/><use xlink:href="#24" y="4.342"/><use xlink:href="#25" y="6.513"/><use xlink:href="#26" y="10.855"/><use xlink:href="#27" y="13.026"/><use xlink:href="#28" y="15.197"/><use xlink:href="#29" y="19.539"/><use xlink:href="#30" y="21.71"/><use xlink:href="#31" y="26.052"/><use xlink:href="#32" y="28.223"/><use xlink:href="#28" y="30.394"/><use xlink:href="#33" y="34.736"/><use xlink:href="#34" y="39.078"/><use xlink:href="#26" y="41.249"/><use xlink:href="#35" y="45.591"/></svg><svg x="6400"><use xlink:href="#a"/><use xlink:href="#b" x="-.004" y="49.908"/><use xlink:href="#23"/><use xlink:href="#24" y="4.342"/><use xlink:href="#25" y="6.513"/><use xlink:href="#26" y="10.855"/><use xlink:href="#27" y="13.026"/><use xlink:href="#28" y="15.197"/><use xlink:href="#29" y="19.539"/><use xlink:href="#30" y="21.71"/><use xlink:href="#31" y="26.052"/><use xlink:href="#32" y="28.223"/><use xlink:href="#28" y="30.394"/><use xlink:href="#33" y="34.736"/><use xlink:href="#34" y="39.078"/><use xlink:href="#26" y="41.249"/><use xlink:href="#35" y="45.591"/></svg><svg x="6480"><use xlink:href="#a"/><use xlink:href="#b" x="1.996" y="49.908"/><use xlink:href="#23"/><use xlink:href="#24" y="4.342"/><use xlink:href="#25" y="6.513"/><use xlink:href="#26" y="10.855"/><use xlink:href="#27" y="13.026"/><use xlink:href="#28" y="15.197"/><use xlink:href="#29" y="19.539"/><use xlink:href="#30" y="21.71"/><use xlink:href="#31" y="26.052"/><use xlink:href="#32" y="28.223"/><use xlink:href="#28" y="30.394"/><use xlink:href="#33" y="34.736"/><use xlink:href="#34" y="39.078"/><use xlink:href="#26" y="41.249"/><use xlink:href="#35" y="45.591"/><use xlink:href="#1" y="49.933"/></svg><svg x="6560"><use xlink:href="#a"/><use xlink:href="#b" x="1.996" y="49.908"/><use xlink:href="#23"/><use xlink:href="#24" y="4.342"/><use xlink:href="#25" y="6.513"/><use xlink:href="#26" y="10.855"/><use xlink:href="#27" y="13.026"/><use xlink:href="#28" y="15.197"/><use xlink:href="#29" y="19.539"/><use xlink:href="#30" y="21.71"/><use xlink:href="#31" y="26.052"/><use xlink:href="#32" y="28.223"/><use xlink:href="#28" y="30.394"/><use xlink:href="#33" y="34.736"/><use xlink:href="#34" y="39.078"/><use xlink:href="#26" y="41.249"/><use xlink:href="#35" y="45.591"/><use xlink:href="#1" y="49.933"/></svg><svg x="6640"><use xlink:href="#a"/><use xlink:href="#b" x="1.996" y="49.908"/><use xlink:href="#23"/><use xlink:href="#24" y="4.342"/><use xlink:href="#25" y="6.513"/><use xlink:href="#26" y="10.855"/><use xlink:href="#27" y="13.026"/><use xlink:href="#28" y="15.197"/><use xlink:href="#29" y="19.539"/><use xlink:href="#30" y="21.71"/><use xlink:href="#31" y="26.052"/><use xlink:href="#32" y="28.223"/><use xlink:href="#28" y="30.394"/><use xlink:href="#33" y="34.736"/><use xlink:href="#34" y="39.078"/><use xlink:href="#26" y="41.249"/><use xlink:href="#35" y="45.591"/><use xlink:href="#1" y="49.933"/></svg><svg x="6720"><use xlink:href="#a"/><use xlink:href="#b" x="-.004" y="49.908"/><use xlink:href="#24" y="2.171"/><use xlink:href="#25" y="4.342"/><use xlink:href="#26" y="8.684"/><use xlink:href="#27" y="10.855"/><use xlink:href="#28" y="13.026"/><use xlink:href="#29" y="17.368"/><use xlink:href="#30" y="19.539"/><use xlink:href="#31" y="23.881"/><use xlink:href="#32" y="26.052"/><use xlink:href="#28" y="28.223"/><use xlink:href="#33" y="32.565"/><use xlink:href="#34" y="36.907"/><use xlink:href="#26" y="39.078"/><use xlink:href="#35" y="43.42"/><use xlink:href="#1" y="47.762"/></svg></svg></g></g></svg></svg>